<svg width="207" height="133" viewBox="0 0 207 133" fill="none" xmlns="http://www.w3.org/2000/svg">
<path d="M49.9441 132.561C40.0983 132.561 31.3742 129.881 23.7718 124.522C16.294 119.038 10.4364 111.374 6.19894 101.528C2.08615 91.5576 0.0297571 79.9047 0.0297571 66.5692C0.0297571 53.2338 2.08615 41.6432 6.19894 31.7975C10.4364 21.8271 16.294 14.1623 23.7718 8.80322C31.3742 3.31951 40.0983 0.577647 49.9441 0.577647C59.9145 0.577647 68.6386 3.31951 76.1164 8.80322C83.5942 14.1623 89.3895 21.8271 93.5023 31.7975C97.7397 41.6432 99.8584 53.2338 99.8584 66.5692C99.8584 79.9047 97.7397 91.5576 93.5023 101.528C89.3895 111.374 83.5942 119.038 76.1164 124.522C68.6386 129.881 59.9145 132.561 49.9441 132.561ZM49.9441 129.009C59.1667 129.009 67.2053 126.454 74.06 121.344C81.0393 116.234 86.4607 109.006 90.3242 99.6585C94.1877 90.3113 96.1195 79.2815 96.1195 66.5692C96.1195 53.7323 94.1877 42.7026 90.3242 33.48C86.4607 24.1327 81.0393 16.9042 74.06 11.7943C67.2053 6.68452 59.1667 4.1296 49.9441 4.1296C40.8461 4.1296 32.8075 6.68452 25.8282 11.7943C18.8489 16.9042 13.4275 24.1327 9.56395 33.48C5.70042 42.7026 3.76866 53.7323 3.76866 66.5692C3.76866 79.2815 5.70042 90.3113 9.56395 99.6585C13.4275 109.006 18.8489 116.234 25.8282 121.344C32.8075 126.454 40.8461 129.009 49.9441 129.009ZM118.991 132V129.196L175.635 71.8037C181.244 66.1953 185.481 61.2725 188.348 57.035C191.214 52.7976 193.146 48.8718 194.143 45.2575C195.14 41.5186 195.639 37.842 195.639 34.2278C195.639 25.0051 192.523 17.7143 186.291 12.3552C180.06 6.87146 171.024 4.1296 159.184 4.1296C150.211 4.1296 142.421 5.43821 135.816 8.05544C129.211 10.6727 123.54 14.6608 118.804 20.0199L116.187 17.4027C121.047 11.919 127.03 7.74387 134.134 4.87738C141.362 2.01089 149.712 0.577647 159.184 0.577647C167.41 0.577647 174.514 1.94857 180.496 4.69043C186.603 7.30766 191.276 11.1089 194.517 16.0941C197.757 21.0793 199.377 27.0615 199.377 34.0408C199.377 38.1536 198.754 42.2041 197.508 46.1922C196.386 50.1804 194.33 54.4178 191.339 58.9045C188.348 63.3912 183.986 68.501 178.253 74.234L123.291 129.944L121.047 128.448H206.481V132H118.991Z" fill="#1D1D1D" fill-opacity="0.9"/>
</svg>
