<svg width="215" height="133" viewBox="0 0 215 133" fill="none" xmlns="http://www.w3.org/2000/svg">
<path d="M49.9441 132.561C40.0983 132.561 31.3742 129.881 23.7718 124.522C16.294 119.038 10.4364 111.374 6.19894 101.528C2.08615 91.5576 0.0297571 79.9047 0.0297571 66.5692C0.0297571 53.2338 2.08615 41.6432 6.19894 31.7975C10.4364 21.8271 16.294 14.1623 23.7718 8.80322C31.3742 3.31951 40.0983 0.577647 49.9441 0.577647C59.9145 0.577647 68.6386 3.31951 76.1164 8.80322C83.5942 14.1623 89.3895 21.8271 93.5023 31.7975C97.7397 41.6432 99.8584 53.2338 99.8584 66.5692C99.8584 79.9047 97.7397 91.5576 93.5023 101.528C89.3895 111.374 83.5942 119.038 76.1164 124.522C68.6386 129.881 59.9145 132.561 49.9441 132.561ZM49.9441 129.009C59.1667 129.009 67.2053 126.454 74.06 121.344C81.0393 116.234 86.4607 109.006 90.3242 99.6585C94.1877 90.3113 96.1195 79.2815 96.1195 66.5692C96.1195 53.7323 94.1877 42.7026 90.3242 33.48C86.4607 24.1327 81.0393 16.9042 74.06 11.7943C67.2053 6.68452 59.1667 4.1296 49.9441 4.1296C40.8461 4.1296 32.8075 6.68452 25.8282 11.7943C18.8489 16.9042 13.4275 24.1327 9.56395 33.48C5.70042 42.7026 3.76866 53.7323 3.76866 66.5692C3.76866 79.2815 5.70042 90.3113 9.56395 99.6585C13.4275 109.006 18.8489 116.234 25.8282 121.344C32.8075 126.454 40.8461 129.009 49.9441 129.009ZM173.018 132.561C161.677 132.561 152.205 129.881 144.603 124.522C137.125 119.163 131.454 111.561 127.591 101.715C123.852 91.7445 121.982 80.0293 121.982 66.5692C121.982 51.8629 124.288 39.6492 128.899 29.928C133.635 20.2069 140.178 12.916 148.528 8.05544C156.879 3.07025 166.6 0.577647 177.692 0.577647C182.926 0.577647 187.911 1.01385 192.647 1.88626C197.383 2.75867 201.683 4.37886 205.547 6.74683L203.677 9.92489C200.437 7.80618 196.573 6.31062 192.087 5.43821C187.6 4.5658 182.802 4.1296 177.692 4.1296C161.988 4.1296 149.401 9.30175 139.929 19.646C130.457 29.9903 125.721 45.5068 125.721 66.1953C125.721 69.3111 125.908 73.3616 126.282 78.3468C126.78 83.2073 127.777 88.0056 129.273 92.7415L127.777 95.5457C128.027 87.3201 130.083 80.2785 133.947 74.4209C137.935 68.4387 143.232 63.8897 149.837 60.7739C156.442 57.6582 163.733 56.1003 171.71 56.1003C180.434 56.1003 187.974 57.6582 194.33 60.7739C200.811 63.8897 205.796 68.3141 209.286 74.047C212.9 79.78 214.707 86.51 214.707 94.2371C214.707 101.964 212.9 108.694 209.286 114.427C205.796 120.16 200.873 124.647 194.517 127.887C188.285 131.003 181.119 132.561 173.018 132.561ZM173.018 129.009C180.496 129.009 187.039 127.576 192.647 124.709C198.38 121.843 202.867 117.792 206.107 112.558C209.348 107.323 210.968 101.216 210.968 94.2371C210.968 83.7682 207.478 75.418 200.499 69.1865C193.52 62.8303 183.923 59.6523 171.71 59.6523C163.733 59.6523 156.692 61.2101 150.585 64.3259C144.603 67.4416 139.929 71.6791 136.564 77.0382C133.199 82.2726 131.516 88.1302 131.516 94.611C131.516 100.095 133.074 105.516 136.19 110.875C139.306 116.11 143.917 120.472 150.024 123.961C156.255 127.326 163.92 129.009 173.018 129.009Z" fill="#1D1D1D" fill-opacity="0.9"/>
</svg>
