<svg width="207" height="133" viewBox="0 0 207 133" fill="none" xmlns="http://www.w3.org/2000/svg">
<path d="M49.9441 132.561C40.0983 132.561 31.3742 129.881 23.7718 124.522C16.294 119.038 10.4364 111.374 6.19894 101.528C2.08615 91.5576 0.0297571 79.9047 0.0297571 66.5692C0.0297571 53.2338 2.08615 41.6432 6.19894 31.7975C10.4364 21.8271 16.294 14.1623 23.7718 8.80322C31.3742 3.31951 40.0983 0.577647 49.9441 0.577647C59.9145 0.577647 68.6386 3.31951 76.1164 8.80322C83.5942 14.1623 89.3895 21.8271 93.5023 31.7975C97.7397 41.6432 99.8584 53.2338 99.8584 66.5692C99.8584 79.9047 97.7397 91.5576 93.5023 101.528C89.3895 111.374 83.5942 119.038 76.1164 124.522C68.6386 129.881 59.9145 132.561 49.9441 132.561ZM49.9441 129.009C59.1667 129.009 67.2053 126.454 74.06 121.344C81.0393 116.234 86.4607 109.006 90.3242 99.6585C94.1877 90.3113 96.1195 79.2815 96.1195 66.5692C96.1195 53.7323 94.1877 42.7026 90.3242 33.48C86.4607 24.1327 81.0393 16.9042 74.06 11.7943C67.2053 6.68452 59.1667 4.1296 49.9441 4.1296C40.8461 4.1296 32.8075 6.68452 25.8282 11.7943C18.8489 16.9042 13.4275 24.1327 9.56395 33.48C5.70042 42.7026 3.76866 53.7323 3.76866 66.5692C3.76866 79.2815 5.70042 90.3113 9.56395 99.6585C13.4275 109.006 18.8489 116.234 25.8282 121.344C32.8075 126.454 40.8461 129.009 49.9441 129.009ZM143.899 132L202.786 3.38182L205.03 4.69043H117.913L119.596 3.19488V31.0497H115.857V1.13848H206.712V3.94265L148.198 132H143.899Z" fill="#1D1D1D" fill-opacity="0.9"/>
</svg>
