<svg width="280" height="387" viewBox="0 0 280 387" fill="none" xmlns="http://www.w3.org/2000/svg">
<path d="M185.188 78.5731C183.22 78.5731 181.379 78.0652 179.665 77.0494C178.014 76.0336 177.189 74.3512 177.189 72.0022C177.189 70.8595 177.443 69.7802 177.951 68.7644C178.522 67.6852 179.411 66.5107 180.617 65.241C181.824 63.9078 183.347 62.3206 185.188 60.4795C187.474 58.321 189.442 56.0672 191.093 53.7182C192.743 51.3058 193.6 48.2902 193.664 44.6715C193.664 42.5764 193.378 40.7036 192.807 39.0529C192.299 37.3388 191.347 36.0056 189.95 35.0533C188.617 34.0375 186.744 33.5296 184.331 33.5296C183.062 33.5296 181.855 33.7518 180.713 34.1962C179.57 34.6406 178.586 35.1803 177.761 35.8151C176.935 36.45 176.364 37.1166 176.046 37.815C176.618 38.3863 176.999 39.0847 177.189 39.91C177.443 40.7353 177.57 41.4971 177.57 42.1955C177.57 42.8938 177.348 43.7192 176.903 44.6715C176.523 45.5603 175.888 46.3221 174.999 46.957C174.174 47.5918 173.094 47.8775 171.761 47.814C169.92 47.687 168.555 47.0522 167.666 45.9094C166.841 44.7667 166.428 43.3382 166.428 41.6241C166.428 39.4656 167.254 37.3388 168.904 35.2438C170.555 33.0852 172.84 31.3076 175.761 29.9109C178.745 28.5142 182.173 27.8159 186.045 27.8159C191.061 27.8159 195.029 28.5777 197.949 30.1014C200.869 31.6251 202.933 33.5931 204.139 36.0056C205.409 38.3546 206.012 40.8305 205.948 43.4335C205.885 46.0999 205.155 48.5124 203.758 50.6709C202.361 52.8294 200.647 54.8292 198.616 56.6703C196.648 58.4479 194.648 60.0986 192.616 61.6223C190.648 63.1459 188.998 64.5744 187.664 65.9076C186.331 67.2408 185.665 68.5105 185.665 69.7167C185.665 70.5421 185.95 71.2404 186.522 71.8118C187.156 72.3832 188.141 72.6688 189.474 72.6688C189.918 72.6688 190.394 72.6371 190.902 72.5736C191.474 72.5101 192.045 72.3832 192.616 72.1927L193.949 76.5732C192.553 77.3351 191.029 77.8747 189.378 78.1921C187.791 78.4461 186.395 78.5731 185.188 78.5731ZM186.045 97.5237C184.395 97.5237 182.935 96.8888 181.665 95.6191C180.395 94.2859 179.76 92.6352 179.76 90.6672C179.76 88.8261 180.395 87.2389 181.665 85.9057C182.998 84.5725 184.49 83.9059 186.141 83.9059C187.918 83.9059 189.41 84.5725 190.616 85.9057C191.823 87.2389 192.426 88.8261 192.426 90.6672C192.426 92.5717 191.791 94.1906 190.521 95.5239C189.252 96.8571 187.76 97.5237 186.045 97.5237Z" fill="#393939"/>
<path d="M247.532 123.852C246.372 123.446 245.392 122.766 244.591 121.813C243.828 120.873 243.689 119.711 244.175 118.326C244.411 117.652 244.784 117.068 245.293 116.575C245.853 116.057 246.619 115.548 247.593 115.049C248.58 114.512 249.806 113.892 251.272 113.187C253.065 112.387 254.691 111.465 256.149 110.421C257.621 109.34 258.749 107.74 259.535 105.62C259.968 104.385 260.186 103.222 260.191 102.131C260.246 101.015 259.96 100.033 259.333 99.1827C258.757 98.3084 257.758 97.6219 256.336 97.1233C255.588 96.8609 254.831 96.7425 254.065 96.7683C253.3 96.7941 252.608 96.9088 251.991 97.1125C251.373 97.3162 250.898 97.591 250.567 97.9371C250.786 98.392 250.866 98.8823 250.807 99.4082C250.787 99.9472 250.704 100.423 250.56 100.834C250.415 101.246 250.114 101.686 249.655 102.156C249.247 102.601 248.715 102.919 248.06 103.11C247.442 103.313 246.747 103.259 245.974 102.946C244.915 102.49 244.242 101.834 243.954 100.977C243.704 100.132 243.756 99.205 244.11 98.1946C244.556 96.9222 245.482 95.8391 246.888 94.9453C248.307 94.014 250.022 93.4385 252.032 93.2188C254.08 93.0122 256.245 93.309 258.528 94.1094C261.484 95.146 263.666 96.4152 265.072 97.9169C266.479 99.4187 267.288 101.005 267.501 102.677C267.764 104.324 267.607 105.908 267.032 107.429C266.444 108.988 265.515 110.259 264.245 111.243C262.976 112.226 261.552 113.051 259.974 113.716C258.446 114.358 256.926 114.917 255.414 115.396C253.939 115.887 252.671 116.388 251.609 116.898C250.548 117.409 249.892 118.019 249.643 118.73C249.472 119.217 249.497 119.687 249.715 120.142C249.971 120.61 250.492 120.982 251.278 121.258C251.54 121.35 251.828 121.429 252.14 121.497C252.49 121.578 252.853 121.621 253.229 121.627L253.11 124.484C252.129 124.645 251.119 124.648 250.081 124.494C249.093 124.316 248.243 124.102 247.532 123.852ZM244.121 135.201C243.148 134.859 242.418 134.183 241.932 133.172C241.459 132.124 241.426 131.02 241.833 129.86C242.213 128.774 242.915 127.97 243.939 127.447C245.001 126.936 246.018 126.852 246.991 127.193C248.039 127.56 248.781 128.262 249.216 129.297C249.652 130.332 249.679 131.392 249.299 132.477C248.905 133.6 248.196 134.423 247.172 134.947C246.148 135.47 245.131 135.555 244.121 135.201Z" fill="#393939"/>
<path d="M231.126 78.5811C230.283 78.2855 229.57 77.7914 228.989 77.0988C228.434 76.4157 228.333 75.5711 228.686 74.5648C228.858 74.0752 229.128 73.651 229.499 73.2922C229.906 72.9156 230.463 72.546 231.17 72.1832C231.887 71.7933 232.778 71.3422 233.843 70.83C235.147 70.2486 236.328 69.5787 237.388 68.8204C238.458 68.0348 239.278 66.8717 239.849 65.331C240.163 64.4335 240.322 63.5883 240.325 62.7953C240.365 61.9847 240.158 61.2705 239.702 60.6528C239.284 60.0174 238.558 59.5185 237.524 59.1562C236.98 58.9655 236.43 58.8795 235.874 58.8982C235.318 58.917 234.815 59.0003 234.366 59.1483C233.917 59.2963 233.572 59.4961 233.331 59.7476C233.49 60.0782 233.549 60.4345 233.506 60.8167C233.491 61.2084 233.431 61.5539 233.326 61.853C233.221 62.1522 233.002 62.4724 232.669 62.8136C232.372 63.1371 231.986 63.3681 231.509 63.5066C231.061 63.6546 230.555 63.6149 229.994 63.3874C229.224 63.0565 228.735 62.5795 228.526 61.9565C228.344 61.343 228.381 60.6691 228.639 59.9347C228.963 59.0101 229.636 58.2229 230.658 57.5733C231.689 56.8966 232.935 56.4783 234.396 56.3186C235.884 56.1685 237.458 56.3842 239.117 56.9659C241.265 57.7192 242.851 58.6416 243.873 59.7329C244.895 60.8243 245.483 61.9773 245.638 63.192C245.829 64.389 245.715 65.5402 245.297 66.6458C244.87 67.7785 244.194 68.7023 243.272 69.4173C242.349 70.1322 241.315 70.7314 240.168 71.215C239.058 71.6809 237.953 72.0876 236.854 72.4352C235.782 72.7923 234.86 73.1564 234.089 73.5272C233.317 73.8981 232.841 74.3419 232.66 74.8587C232.536 75.2122 232.554 75.5543 232.713 75.8849C232.899 76.225 233.277 76.4952 233.848 76.6955C234.039 76.7622 234.248 76.8201 234.475 76.8692C234.729 76.9279 234.993 76.9593 235.266 76.9635L235.179 79.0404C234.467 79.1569 233.733 79.1593 232.978 79.0473C232.26 78.9177 231.643 78.7623 231.126 78.5811ZM228.647 86.8282C227.939 86.5802 227.409 86.0889 227.056 85.3543C226.712 84.5924 226.688 83.79 226.984 82.9469C227.26 82.1582 227.771 81.5736 228.515 81.1932C229.286 80.8223 230.026 80.7608 230.733 81.0087C231.494 81.2757 232.033 81.7854 232.35 82.5377C232.666 83.29 232.686 84.0605 232.41 84.8492C232.124 85.6651 231.609 86.2633 230.864 86.6437C230.12 87.0241 229.381 87.0856 228.647 86.8282Z" fill="#393939"/>
<path d="M164.037 170.812C194.768 176.501 215.318 186.816 215.318 198.58C215.318 216.495 167.676 231.039 109 231.039C50.3183 231.039 2.68188 216.495 2.68188 198.58C2.68188 186.988 22.6306 176.807 52.6154 171.064" stroke="#393939" stroke-width="4.77116" stroke-miterlimit="1.5" stroke-linecap="round" stroke-linejoin="round"/>
<path fill-rule="evenodd" clip-rule="evenodd" d="M108.494 121.702C139.241 121.702 164.203 141.605 164.203 166.126C164.203 190.647 139.722 187.564 109.16 187.61C78.4122 187.657 52.7844 190.647 52.7844 166.126C52.7844 141.605 77.7463 121.702 108.494 121.702Z" stroke="#393939" stroke-width="4.76968" stroke-miterlimit="1.5" stroke-linecap="round" stroke-linejoin="round"/>
<path d="M107.477 215.948C111.028 215.948 113.907 213.069 113.907 209.518C113.907 205.966 111.028 203.087 107.477 203.087C103.925 203.087 101.047 205.966 101.047 209.518C101.047 213.069 103.925 215.948 107.477 215.948Z" stroke="#393939" stroke-width="4.77417" stroke-miterlimit="1.5" stroke-linecap="round" stroke-linejoin="round"/>
<path d="M165.392 208.622C168.943 208.622 171.822 205.743 171.822 202.192C171.822 198.641 168.943 195.762 165.392 195.762C161.841 195.762 158.962 198.641 158.962 202.192C158.962 205.743 161.841 208.622 165.392 208.622Z" stroke="#393939" stroke-width="4.77417" stroke-miterlimit="1.5" stroke-linecap="round" stroke-linejoin="round"/>
<path d="M64.5883 229.905L30.2617 382.528" stroke="#393939" stroke-width="2.72638" stroke-miterlimit="1.5" stroke-linecap="round" stroke-linejoin="round"/>
<path d="M146.84 231.737L175.486 385.528" stroke="#393939" stroke-width="2.72638" stroke-miterlimit="1.5" stroke-linecap="round" stroke-linejoin="round"/>
<path d="M122.106 235.259L129.51 321.273" stroke="#393939" stroke-width="2.30471" stroke-miterlimit="1.5" stroke-linecap="round" stroke-linejoin="round"/>
<path d="M91.6379 261.375L82.0987 365.924" stroke="#393939" stroke-width="2.62525" stroke-miterlimit="1.5" stroke-linecap="round" stroke-linejoin="round"/>
<path d="M45.884 205.534C49.4353 205.534 52.3142 202.655 52.3142 199.104C52.3142 195.553 49.4353 192.674 45.884 192.674C42.3327 192.674 39.4539 195.553 39.4539 199.104C39.4539 202.655 42.3327 205.534 45.884 205.534Z" stroke="#393939" stroke-width="4.77417" stroke-miterlimit="1.5" stroke-linecap="round" stroke-linejoin="round"/>
</svg>
