<svg width="53" height="38" viewBox="0 0 53 38" fill="none" xmlns="http://www.w3.org/2000/svg">
<path d="M19.3402 24.5507V23.8212H20.0696V24.5507H19.3402ZM19.3402 27.6001V26.8707H20.0696V27.6001H19.3402ZM20.7101 27.6891L22.2224 22.2947H22.7347L21.226 27.6891H20.7101ZM23.2187 27.6001V22.3837H23.8592V24.2553C24.1581 23.909 24.5352 23.7358 24.9907 23.7358C25.2706 23.7358 25.5138 23.7916 25.7201 23.9031C25.9265 24.0122 26.0736 24.164 26.1614 24.3585C26.2515 24.553 26.2966 24.8353 26.2966 25.2054V27.6001H25.6561V25.2054C25.6561 24.8851 25.5861 24.6527 25.4461 24.508C25.3086 24.3609 25.1129 24.2874 24.859 24.2874C24.6693 24.2874 24.4902 24.3372 24.3217 24.4368C24.1557 24.5341 24.0371 24.6669 23.9659 24.8353C23.8947 25.0037 23.8592 25.2362 23.8592 25.5327V27.6001H23.2187ZM28.6735 27.0272L28.766 27.593C28.5857 27.6309 28.4244 27.6499 28.2821 27.6499C28.0496 27.6499 27.8693 27.6131 27.7412 27.5396C27.6131 27.4661 27.523 27.37 27.4708 27.2514C27.4186 27.1304 27.3925 26.8778 27.3925 26.4935V24.3194H26.9228V23.8212H27.3925V22.8854L28.0294 22.5011V23.8212H28.6735V24.3194H28.0294V26.5291C28.0294 26.7117 28.0401 26.8291 28.0615 26.8813C28.0852 26.9335 28.122 26.975 28.1718 27.0059C28.224 27.0367 28.2975 27.0521 28.3924 27.0521C28.4636 27.0521 28.5573 27.0438 28.6735 27.0272ZM30.7017 27.0272L30.7942 27.593C30.6139 27.6309 30.4526 27.6499 30.3103 27.6499C30.0778 27.6499 29.8975 27.6131 29.7694 27.5396C29.6413 27.4661 29.5512 27.37 29.499 27.2514C29.4468 27.1304 29.4207 26.8778 29.4207 26.4935V24.3194H28.951V23.8212H29.4207V22.8854L30.0577 22.5011V23.8212H30.7017V24.3194H30.0577V26.5291C30.0577 26.7117 30.0683 26.8291 30.0897 26.8813C30.1134 26.9335 30.1502 26.975 30.2 27.0059C30.2522 27.0367 30.3257 27.0521 30.4206 27.0521C30.4918 27.0521 30.5855 27.0438 30.7017 27.0272ZM31.3315 29.0483V23.8212H31.9151V24.3123C32.0527 24.1201 32.208 23.9766 32.3812 23.8817C32.5544 23.7845 32.7643 23.7358 33.011 23.7358C33.3336 23.7358 33.6183 23.8188 33.865 23.9849C34.1117 24.151 34.2979 24.3858 34.4237 24.6894C34.5494 24.9907 34.6122 25.3216 34.6122 25.6822C34.6122 26.0689 34.5423 26.4176 34.4023 26.7283C34.2647 27.0367 34.0631 27.2739 33.7974 27.44C33.5341 27.6037 33.2565 27.6855 32.9648 27.6855C32.7513 27.6855 32.5591 27.6404 32.3883 27.5503C32.2199 27.4601 32.0811 27.3463 31.972 27.2087V29.0483H31.3315ZM31.9115 25.732C31.9115 26.2183 32.01 26.5777 32.2069 26.8102C32.4037 27.0426 32.6421 27.1589 32.9221 27.1589C33.2067 27.1589 33.4499 27.0391 33.6515 26.7995C33.8555 26.5575 33.9575 26.1839 33.9575 25.6786C33.9575 25.1971 33.8579 24.8365 33.6586 24.5969C33.4617 24.3573 33.2257 24.2375 32.9505 24.2375C32.6777 24.2375 32.4358 24.3656 32.2246 24.6218C32.0159 24.8757 31.9115 25.2457 31.9115 25.732Z" fill="#393939"/>
<path d="M20.7139 15.2432V14.3513L25.8686 12.1748V13.1251L21.781 14.8026L25.8686 16.496V17.4463L20.7139 15.2432ZM26.4685 18.7787L28.7246 10.7309H29.4891L27.2382 18.7787H26.4685ZM35.2436 15.2432L30.0889 17.4463V16.496L34.1712 14.8026L30.0889 13.1251V12.1748L35.2436 14.3513V15.2432Z" fill="#393939"/>
<path fill-rule="evenodd" clip-rule="evenodd" d="M51.6183 3.28615C51.6183 2.02391 50.5956 1 49.3325 1C41.361 1 14.8528 1 6.88123 1C5.61822 1 4.59399 2.02391 4.59399 3.28615C4.59399 9.34723 4.59399 25.7765 4.59399 31.8376C4.59399 33.0998 5.61822 34.1237 6.88123 34.1237C14.8528 34.1237 41.361 34.1237 49.3325 34.1237C50.5956 34.1237 51.6183 33.0998 51.6183 31.8376C51.6183 25.7765 51.6183 9.34723 51.6183 3.28615Z" stroke="#393939" stroke-width="0.87483" stroke-miterlimit="1.5" stroke-linecap="round" stroke-linejoin="round"/>
<path d="M4.25138 3.94238H3.28724C2.02422 3.94238 1 4.96629 1 6.22853C1 12.2896 1 28.7188 1 34.7799C1 36.0422 2.02422 37.066 3.28724 37.066C11.2588 37.066 37.767 37.066 45.7385 37.066C47.0016 37.066 48.0243 36.0422 48.0243 34.7799" stroke="#393939" stroke-width="0.87483" stroke-miterlimit="1.5" stroke-linecap="round" stroke-linejoin="round"/>
<path d="M4.59399 7.2937C12.7639 7.2937 43.4501 7.2937 51.6184 7.2937" stroke="#393939" stroke-width="0.87483" stroke-miterlimit="1.5" stroke-linecap="round" stroke-linejoin="round"/>
<path d="M7.61279 3.69995L10.7066 3.70054" stroke="#393939" stroke-width="0.87483" stroke-miterlimit="1.5" stroke-linecap="round" stroke-linejoin="round"/>
<path d="M13.2192 3.69995L16.313 3.70054" stroke="#393939" stroke-width="0.87483" stroke-miterlimit="1.5" stroke-linecap="round" stroke-linejoin="round"/>
</svg>
