<svg width="69" height="58" viewBox="0 0 69 58" fill="none" xmlns="http://www.w3.org/2000/svg">
<path fill-rule="evenodd" clip-rule="evenodd" d="M22.8225 2.08779C21.5994 1.97074 20.3683 1.97074 19.1493 2.08779L18.5438 5.03449C17.3732 5.2121 16.2268 5.51889 15.1248 5.9508L13.1267 3.70241C12.0086 4.21102 10.947 4.82459 9.94597 5.53906L10.8946 8.39293C9.97018 9.13161 9.13055 9.9712 8.39186 10.8956L5.53805 9.94704C4.82762 10.9441 4.21001 12.0097 3.70544 13.1278L5.94978 15.1218C5.52191 16.2278 5.21512 17.3742 5.03348 18.5448L2.09082 19.1503C1.96973 20.3693 1.96973 21.6005 2.09082 22.8195L5.03348 23.425C5.21512 24.5956 5.52191 25.742 5.94978 26.844L3.70544 28.842C4.21001 29.9602 4.82762 31.0259 5.53805 32.0229L8.39186 31.0743C9.13055 31.9986 9.97018 32.8382 10.8946 33.5769L9.94597 36.4308C10.947 37.1452 12.0086 37.7588 13.1267 38.2674L15.1248 36.019C16.2268 36.4469 17.3732 36.7577 18.5438 36.9353L19.1493 39.878C20.3683 39.9991 21.5994 39.9991 22.8225 39.878L23.424 36.9353C24.5946 36.7577 25.745 36.4469 26.847 36.019L28.841 38.2674C29.9591 37.7588 31.0248 37.1452 32.0218 36.4308L31.0732 33.5769C31.9976 32.8382 32.8372 31.9986 33.5799 31.0743L36.4297 32.0229C37.1442 31.0259 37.7577 29.9602 38.2663 28.842L36.018 26.844C36.4499 25.742 36.7567 24.5956 36.9343 23.425L39.881 22.8195C39.998 21.6005 39.998 20.3693 39.881 19.1503L36.9343 18.5448C36.7567 17.3742 36.4499 16.2278 36.018 15.1218L38.2663 13.1278C37.7577 12.0097 37.1442 10.9441 36.4297 9.94704L33.5799 10.8956C32.8372 9.9712 31.9976 9.13161 31.0732 8.39293L32.0218 5.53906C31.0248 4.82459 29.9591 4.21102 28.841 3.70241L26.847 5.9508C25.745 5.51889 24.5946 5.2121 23.424 5.03449L22.8225 2.08779ZM20.9859 17.1886C23.0809 17.1886 24.7803 18.8879 24.7803 20.9829C24.7803 23.0779 23.0809 24.7813 20.9859 24.7813C18.8909 24.7813 17.1875 23.0779 17.1875 20.9829C17.1875 18.8879 18.8909 17.1886 20.9859 17.1886Z" stroke="#393939" stroke-width="2.53125" stroke-miterlimit="1.5" stroke-linecap="round" stroke-linejoin="round"/>
<path fill-rule="evenodd" clip-rule="evenodd" d="M55.1271 28.4235C54.2367 28.3383 53.3405 28.3383 52.4531 28.4235L52.0123 30.5687C51.1601 30.698 50.3256 30.9213 49.5234 31.2357L48.0688 29.5989C47.2548 29.9692 46.482 30.4159 45.7532 30.936L46.4438 33.0135C45.7709 33.5513 45.1596 34.1625 44.6219 34.8354L42.5444 34.1449C42.0272 34.8707 41.5776 35.6464 41.2103 36.4604L42.8441 37.912C42.5326 38.7172 42.3093 39.5517 42.1771 40.4039L40.0349 40.8447C39.9467 41.7321 39.9467 42.6284 40.0349 43.5158L42.1771 43.9566C42.3093 44.8087 42.5326 45.6433 42.8441 46.4455L41.2103 47.9C41.5776 48.714 42.0272 49.4898 42.5444 50.2156L44.6219 49.5251C45.1596 50.198 45.7709 50.8092 46.4438 51.3469L45.7532 53.4245C46.482 53.9446 47.2548 54.3913 48.0688 54.7615L49.5234 53.1247C50.3256 53.4362 51.1601 53.6625 52.0123 53.7918L52.4531 55.934C53.3405 56.0221 54.2367 56.0221 55.1271 55.934L55.5649 53.7918C56.4171 53.6625 57.2546 53.4362 58.0568 53.1247L59.5084 54.7615C60.3224 54.3913 61.0982 53.9446 61.824 53.4245L61.1334 51.3469C61.8064 50.8092 62.4176 50.198 62.9583 49.5251L65.0329 50.2156C65.553 49.4898 65.9996 48.714 66.3699 47.9L64.7331 46.4455C65.0476 45.6433 65.2709 44.8087 65.4002 43.9566L67.5453 43.5158C67.6305 42.6284 67.6305 41.7321 67.5453 40.8447L65.4002 40.4039C65.2709 39.5517 65.0476 38.7172 64.7331 37.912L66.3699 36.4604C65.9996 35.6464 65.553 34.8707 65.0329 34.1449L62.9583 34.8354C62.4176 34.1625 61.8064 33.5513 61.1334 33.0135L61.824 30.936C61.0982 30.4159 60.3224 29.9692 59.5084 29.5989L58.0568 31.2357C57.2546 30.9213 56.4171 30.698 55.5649 30.5687L55.1271 28.4235ZM53.7901 39.4166C55.3152 39.4166 56.5523 40.6537 56.5523 42.1788C56.5523 43.7038 55.3152 44.944 53.7901 44.944C52.265 44.944 51.0249 43.7038 51.0249 42.1788C51.0249 40.6537 52.265 39.4166 53.7901 39.4166Z" stroke="#393939" stroke-width="2.10938" stroke-miterlimit="1.5" stroke-linecap="round" stroke-linejoin="round"/>
</svg>
