<svg width="48" height="50" viewBox="0 0 48 50" fill="none" xmlns="http://www.w3.org/2000/svg">
<path d="M22.4333 32.466L36.4661 47.4745C37.5453 48.6288 39.3566 48.6901 40.511 47.6107C41.7011 46.498 43.1873 45.1084 44.3774 43.9957C45.5318 42.9163 45.5922 41.1051 44.5129 39.9508C40.2035 35.3417 30.2636 24.7107 30.2636 24.7107" stroke="#393939" stroke-width="0.664869" stroke-miterlimit="1.5" stroke-linecap="round" stroke-linejoin="round"/>
<path d="M23.3163 17.3074L10.4812 3.57981C9.40198 2.42552 7.59079 2.36419 6.43637 3.44355C5.24626 4.55629 3.76008 5.94585 2.56994 7.05863C1.41556 8.13795 1.35514 9.94922 2.43439 11.1035C6.50611 15.4583 15.5241 25.1034 15.5241 25.1034" stroke="#393939" stroke-width="0.664869" stroke-miterlimit="1.5" stroke-linecap="round" stroke-linejoin="round"/>
<path d="M4.09933 12.9517L6.48675 10.6906" stroke="#393939" stroke-width="0.467732" stroke-miterlimit="1.5" stroke-linecap="round" stroke-linejoin="round"/>
<path d="M6.21995 15.1782L7.81837 13.6646" stroke="#393939" stroke-width="0.407681" stroke-miterlimit="1.5" stroke-linecap="round" stroke-linejoin="round"/>
<path d="M8.34054 17.4048L10.728 15.1438" stroke="#393939" stroke-width="0.467732" stroke-miterlimit="1.5" stroke-linecap="round" stroke-linejoin="round"/>
<path d="M10.4614 19.6318L12.0598 18.1182" stroke="#393939" stroke-width="0.407681" stroke-miterlimit="1.5" stroke-linecap="round" stroke-linejoin="round"/>
<path d="M12.476 21.8584L14.8635 19.5974" stroke="#393939" stroke-width="0.467732" stroke-miterlimit="1.5" stroke-linecap="round" stroke-linejoin="round"/>
<path d="M14.5967 24.0852L16.1951 22.5716" stroke="#393939" stroke-width="0.407681" stroke-miterlimit="1.5" stroke-linecap="round" stroke-linejoin="round"/>
<path d="M22.9734 33.0979L24.5718 31.5843" stroke="#393939" stroke-width="0.407681" stroke-miterlimit="1.5" stroke-linecap="round" stroke-linejoin="round"/>
<path d="M25.0942 35.3249L27.4816 33.0639" stroke="#393939" stroke-width="0.467732" stroke-miterlimit="1.5" stroke-linecap="round" stroke-linejoin="round"/>
<path d="M27.1089 37.5515L28.7073 36.0379" stroke="#393939" stroke-width="0.407681" stroke-miterlimit="1.5" stroke-linecap="round" stroke-linejoin="round"/>
<path d="M29.2295 39.7781L31.6169 37.5171" stroke="#393939" stroke-width="0.467732" stroke-miterlimit="1.5" stroke-linecap="round" stroke-linejoin="round"/>
<path d="M31.3501 42.0046L32.9485 40.491" stroke="#393939" stroke-width="0.407681" stroke-miterlimit="1.5" stroke-linecap="round" stroke-linejoin="round"/>
<path d="M33.4709 44.2317L35.8583 41.9707" stroke="#393939" stroke-width="0.467732" stroke-miterlimit="1.5" stroke-linecap="round" stroke-linejoin="round"/>
<path d="M35.4856 46.4582L37.084 44.9447" stroke="#393939" stroke-width="0.407681" stroke-miterlimit="1.5" stroke-linecap="round" stroke-linejoin="round"/>
<path fill-rule="evenodd" clip-rule="evenodd" d="M40.5264 13.9625L33.6682 7.10425L1.78622 38.9862C0.800135 39.9723 0.79954 41.5723 1.78592 42.5587L5.07174 45.8445C6.05782 46.8306 7.65837 46.8306 8.64445 45.8445L40.5264 13.9625Z" stroke="#393939" stroke-width="0.77443" stroke-miterlimit="1.5" stroke-linecap="round" stroke-linejoin="round"/>
<path d="M37.0615 10.4973L9.51907 38.0398" stroke="#393939" stroke-width="0.77443" stroke-miterlimit="1.5" stroke-linecap="round" stroke-linejoin="round"/>
<path d="M13.0634 41.4252L6.20557 34.5674L4.19162 36.5813L11.0495 43.4392L13.0634 41.4252Z" stroke="#393939" stroke-width="0.768971" stroke-miterlimit="1.5" stroke-linecap="round" stroke-linejoin="round"/>
<path fill-rule="evenodd" clip-rule="evenodd" d="M43.388 3.25946C43.669 3.14955 43.9882 3.21573 44.2015 3.42907C44.4149 3.64241 44.481 3.96162 44.3702 4.24161C43.1408 7.36845 40.5599 13.9291 40.5599 13.9291L33.7016 7.07083C33.7016 7.07083 40.262 4.48964 43.388 3.25946Z" stroke="#393939" stroke-width="0.784921" stroke-miterlimit="1.5" stroke-linecap="round" stroke-linejoin="round"/>
<path d="M40.6665 4.45361L43.1444 6.94606" stroke="#393939" stroke-width="0.77443" stroke-miterlimit="1.5" stroke-linecap="round" stroke-linejoin="round"/>
</svg>
