<svg width="245" height="25" viewBox="0 0 245 25" fill="none" xmlns="http://www.w3.org/2000/svg">
<path d="M6.152 1.152C9.13867 1.152 11.3147 1.73867 12.68 2.912C14.0453 4.08533 14.728 5.73867 14.728 7.872C14.728 8.81067 14.568 9.71733 14.248 10.592C13.9493 11.4453 13.448 12.2133 12.744 12.896C12.04 13.5787 11.1013 14.1227 9.928 14.528C8.75467 14.912 7.31467 15.104 5.608 15.104H2.984V24H0.104V1.152H6.152ZM5.896 3.616H2.984V12.64H5.288C6.73867 12.64 7.944 12.4907 8.904 12.192C9.864 11.872 10.5787 11.3707 11.048 10.688C11.5173 10.0053 11.752 9.10933 11.752 8C11.752 6.528 11.2827 5.42933 10.344 4.704C9.40533 3.97867 7.92267 3.616 5.896 3.616ZM34.4613 24L31.7093 16.928H22.6533L19.9332 24H17.0212L25.9493 1.056H28.5413L37.4373 24H34.4613ZM28.2853 7.456C28.2213 7.28533 28.1146 6.976 27.9653 6.528C27.8159 6.08 27.6666 5.62133 27.5173 5.152C27.3893 4.66133 27.2826 4.288 27.1973 4.032C27.0906 4.45867 26.9733 4.896 26.8453 5.344C26.7386 5.77067 26.6213 6.16533 26.4932 6.528C26.3866 6.89067 26.2906 7.2 26.2052 7.456L23.6133 14.368H30.8453L28.2853 7.456ZM46.8485 12.384L52.8005 1.152H55.9045L48.2885 15.136V24H45.4085V15.264L37.7925 1.152H40.9285L46.8485 12.384ZM73.6913 24L70.9393 16.928H61.8833L59.1633 24H56.2513L65.1793 1.056H67.7713L76.6673 24H73.6913ZM67.5153 7.456C67.4513 7.28533 67.3446 6.976 67.1953 6.528C67.0459 6.08 66.8966 5.62133 66.7473 5.152C66.6193 4.66133 66.5126 4.288 66.4273 4.032C66.3206 4.45867 66.2033 4.896 66.0753 5.344C65.9686 5.77067 65.8513 6.16533 65.7233 6.528C65.6166 6.89067 65.5206 7.2 65.4353 7.456L62.8433 14.368H70.0753L67.5153 7.456ZM92.1128 24L84.5927 3.968H84.4647C84.5074 4.39467 84.5394 4.93867 84.5607 5.6C84.6034 6.26133 84.6354 6.98667 84.6567 7.776C84.6781 8.544 84.6887 9.33333 84.6887 10.144V24H82.0327V1.152H86.2887L93.3287 19.872H93.4567L100.625 1.152H104.849V24H102.001V9.952C102.001 9.20533 102.011 8.46933 102.033 7.744C102.054 6.99733 102.086 6.304 102.129 5.664C102.171 5.00267 102.203 4.448 102.225 4H102.097L94.4808 24H92.1128ZM140.567 12.352C140.567 14.912 140.087 17.056 139.127 18.784C138.188 20.512 136.833 21.8133 135.063 22.688C133.292 23.5627 131.148 24 128.631 24H122.263V1.152H129.303C131.607 1.152 133.601 1.57867 135.287 2.432C136.972 3.28533 138.273 4.544 139.191 6.208C140.108 7.85067 140.567 9.89867 140.567 12.352ZM137.527 12.448C137.527 10.4213 137.185 8.75733 136.503 7.456C135.841 6.15467 134.86 5.19467 133.559 4.576C132.279 3.936 130.721 3.616 128.887 3.616H125.143V21.536H128.247C131.34 21.536 133.655 20.7787 135.191 19.264C136.748 17.728 137.527 15.456 137.527 12.448ZM160.646 24H147.878V1.152H160.646V3.68H150.758V10.816H160.07V13.312H150.758V21.472H160.646V24ZM180.859 17.888C180.859 19.2533 180.528 20.416 179.867 21.376C179.206 22.3147 178.256 23.04 177.019 23.552C175.803 24.064 174.363 24.32 172.699 24.32C171.846 24.32 171.024 24.2773 170.235 24.192C169.467 24.1067 168.763 23.9893 168.123 23.84C167.483 23.6693 166.918 23.4667 166.427 23.232V20.48C167.195 20.8213 168.144 21.1307 169.275 21.408C170.427 21.6853 171.611 21.824 172.827 21.824C173.958 21.824 174.907 21.6747 175.675 21.376C176.443 21.0773 177.019 20.6507 177.403 20.096C177.787 19.5413 177.979 18.8907 177.979 18.144C177.979 17.3973 177.819 16.768 177.499 16.256C177.179 15.744 176.624 15.2747 175.835 14.848C175.067 14.4 173.99 13.9307 172.603 13.44C171.622 13.0773 170.758 12.6933 170.011 12.288C169.286 11.8613 168.678 11.3813 168.187 10.848C167.696 10.3147 167.323 9.70667 167.067 9.024C166.832 8.34133 166.715 7.552 166.715 6.656C166.715 5.44 167.024 4.40533 167.643 3.552C168.262 2.67733 169.115 2.00533 170.203 1.536C171.312 1.06667 172.582 0.831999 174.011 0.831999C175.27 0.831999 176.422 0.949332 177.467 1.184C178.512 1.41867 179.462 1.728 180.315 2.112L179.419 4.576C178.63 4.23467 177.766 3.94667 176.827 3.712C175.91 3.47733 174.95 3.36 173.947 3.36C172.987 3.36 172.187 3.49867 171.547 3.776C170.907 4.05333 170.427 4.448 170.107 4.96C169.787 5.45067 169.627 6.02667 169.627 6.688C169.627 7.456 169.787 8.096 170.107 8.608C170.427 9.12 170.95 9.57867 171.675 9.984C172.4 10.3893 173.382 10.8267 174.619 11.296C175.963 11.7867 177.094 12.32 178.011 12.896C178.95 13.4507 179.654 14.1227 180.123 14.912C180.614 15.7013 180.859 16.6933 180.859 17.888ZM194.134 24H185.878V22.336L188.566 21.728V3.456L185.878 2.816V1.152H194.134V2.816L191.446 3.456V21.728L194.134 22.336V24ZM210.705 11.936H218.609V23.136C217.372 23.5413 216.124 23.84 214.865 24.032C213.607 24.224 212.177 24.32 210.577 24.32C208.209 24.32 206.215 23.8507 204.593 22.912C202.972 21.952 201.735 20.5973 200.881 18.848C200.049 17.0773 199.633 14.9867 199.633 12.576C199.633 10.1867 200.103 8.11733 201.041 6.368C201.98 4.61867 203.324 3.264 205.073 2.304C206.844 1.32267 208.977 0.831999 211.473 0.831999C212.753 0.831999 213.959 0.949332 215.089 1.184C216.241 1.41867 217.308 1.74933 218.289 2.176L217.201 4.672C216.391 4.30933 215.473 4 214.449 3.744C213.447 3.488 212.401 3.36 211.313 3.36C209.5 3.36 207.943 3.73333 206.641 4.48C205.34 5.22667 204.348 6.29333 203.665 7.68C202.983 9.04533 202.641 10.6773 202.641 12.576C202.641 14.3893 202.929 16 203.505 17.408C204.103 18.7947 205.031 19.8827 206.289 20.672C207.548 21.44 209.201 21.824 211.249 21.824C211.932 21.824 212.529 21.8027 213.041 21.76C213.575 21.696 214.055 21.6213 214.481 21.536C214.929 21.4507 215.345 21.3653 215.729 21.28V14.496H210.705V11.936ZM244.419 24H241.059L228.834 5.024H228.706C228.728 5.408 228.749 5.83467 228.77 6.304C228.813 6.77333 228.845 7.28533 228.866 7.84C228.888 8.37333 228.909 8.928 228.93 9.504C228.952 10.08 228.962 10.656 228.962 11.232V24H226.306V1.152H229.634L241.826 20.064H241.955C241.933 19.808 241.912 19.456 241.891 19.008C241.869 18.5387 241.848 18.0267 241.826 17.472C241.805 16.896 241.784 16.3093 241.763 15.712C241.741 15.1147 241.731 14.56 241.731 14.048V1.152H244.419V24Z" fill="#1D1D1D"/>
</svg>
