<svg width="10" height="47" viewBox="0 0 10 47" fill="none" xmlns="http://www.w3.org/2000/svg">
<path d="M0.88 3.888C0.88 3.208 0.964 2.58 1.132 2.004C1.308 1.436 1.548 0.948 1.852 0.54L3.064 1.02C2.872 1.292 2.708 1.576 2.572 1.872C2.444 2.168 2.344 2.484 2.272 2.82C2.208 3.156 2.176 3.512 2.176 3.888C2.176 4.52 2.28 4.976 2.488 5.256C2.696 5.536 2.968 5.676 3.304 5.676C3.6 5.676 3.824 5.58 3.976 5.388C4.136 5.196 4.268 4.852 4.372 4.356L4.648 3C4.808 2.224 5.076 1.644 5.452 1.26C5.828 0.876 6.332 0.684 6.964 0.684C7.492 0.684 7.952 0.824 8.344 1.104C8.736 1.384 9.04 1.776 9.256 2.28C9.472 2.784 9.58 3.372 9.58 4.044C9.58 4.644 9.492 5.2 9.316 5.712C9.148 6.224 8.904 6.652 8.584 6.996L7.432 6.516C7.72 6.172 7.932 5.796 8.068 5.388C8.212 4.98 8.284 4.524 8.284 4.02C8.284 3.452 8.172 3.008 7.948 2.688C7.732 2.376 7.432 2.22 7.048 2.22C6.752 2.22 6.516 2.316 6.34 2.508C6.164 2.708 6.028 3.044 5.932 3.516L5.668 4.86C5.508 5.66 5.244 6.252 4.876 6.636C4.516 7.02 4.028 7.212 3.412 7.212C2.908 7.212 2.464 7.076 2.08 6.804C1.704 6.532 1.408 6.148 1.192 5.652C0.984 5.156 0.88 4.568 0.88 3.888ZM0.88 12.6064C0.88 11.7264 1.056 10.9704 1.408 10.3384C1.768 9.71438 2.272 9.23438 2.92 8.89838C3.576 8.56238 4.348 8.39438 5.236 8.39438C6.124 8.39438 6.892 8.56238 7.54 8.89838C8.188 9.23438 8.688 9.71438 9.04 10.3384C9.4 10.9704 9.58 11.7264 9.58 12.6064C9.58 13.1984 9.496 13.7304 9.328 14.2024C9.16 14.6824 8.912 15.0944 8.584 15.4384L7.36 14.9344C7.664 14.5584 7.88 14.1944 8.008 13.8424C8.144 13.4984 8.212 13.1024 8.212 12.6544C8.212 11.7984 7.952 11.1424 7.432 10.6864C6.92 10.2384 6.188 10.0144 5.236 10.0144C4.284 10.0144 3.548 10.2384 3.028 10.6864C2.508 11.1424 2.248 11.7984 2.248 12.6544C2.248 13.1024 2.312 13.4984 2.44 13.8424C2.576 14.1944 2.8 14.5584 3.112 14.9344L1.888 15.4384C1.568 15.0944 1.32 14.6824 1.144 14.2024C0.968 13.7304 0.88 13.1984 0.88 12.6064ZM1 16.8852H9.46V20.5812C9.46 21.5092 9.24 22.2252 8.8 22.7292C8.36 23.2412 7.748 23.4972 6.964 23.4972C6.444 23.4972 6 23.3812 5.632 23.1492C5.264 22.9252 4.98 22.6012 4.78 22.1772C4.588 21.7532 4.492 21.2532 4.492 20.6772L4.72 20.8452V21.2532C4.72 21.5892 4.632 21.8892 4.456 22.1532C4.28 22.4172 4.012 22.6332 3.652 22.8012L1 24.0372V22.3332L3.748 21.0852C4.028 20.9732 4.212 20.8012 4.3 20.5692C4.388 20.3452 4.432 20.0732 4.432 19.7532V18.4332H1V16.8852ZM5.572 18.4332V20.3292C5.572 20.8732 5.684 21.2852 5.908 21.5652C6.14 21.8532 6.476 21.9972 6.916 21.9972C7.356 21.9972 7.688 21.8532 7.912 21.5652C8.136 21.2852 8.248 20.8732 8.248 20.3292V18.4332H5.572ZM5.236 24.9764C6.124 24.9764 6.892 25.1364 7.54 25.4564C8.188 25.7844 8.688 26.2524 9.04 26.8604C9.4 27.4684 9.58 28.1924 9.58 29.0324C9.58 29.8644 9.4 30.5844 9.04 31.1924C8.688 31.8004 8.188 32.2684 7.54 32.5964C6.892 32.9324 6.128 33.1004 5.248 33.1004C4.36 33.1004 3.588 32.9324 2.932 32.5964C2.284 32.2684 1.78 31.8004 1.42 31.1924C1.06 30.5844 0.88 29.8644 0.88 29.0324C0.88 28.1924 1.06 27.4684 1.42 26.8604C1.78 26.2604 2.284 25.7964 2.932 25.4684C3.588 25.1404 4.356 24.9764 5.236 24.9764ZM5.236 26.5964C4.284 26.5964 3.54 26.8004 3.004 27.2084C2.468 27.6164 2.2 28.2244 2.2 29.0324C2.2 29.8164 2.468 30.4204 3.004 30.8444C3.54 31.2684 4.284 31.4804 5.236 31.4804C6.196 31.4804 6.94 31.2684 7.468 30.8444C7.996 30.4284 8.26 29.8244 8.26 29.0324C8.26 28.2244 7.996 27.6164 7.468 27.2084C6.94 26.8004 6.196 26.5964 5.236 26.5964ZM1 34.6977H9.46V36.2457H2.308V40.2297H1V34.6977ZM1 41.4126H9.46V42.9606H2.308V46.9446H1V41.4126Z" fill="black"/>
</svg>
